<?xml version="1.0" encoding="UTF-8" standalone="no"?>
<svg width="100%" height="100%" viewBox="0 0 541 578" version="1.1" xmlns="http://www.w3.org/2000/svg" xmlns:xlink="http://www.w3.org/1999/xlink" xml:space="preserve" xmlns:serif="http://www.serif.com/" style="fill-rule:evenodd;clip-rule:evenodd;stroke-linejoin:round;stroke-miterlimit:2;">
    <g fill="currentColor">
		<path d="M266.61,30.92C264.48,30.65 264.89,30.72 264.26,32.23C260.79,40.42 260.24,54.07 257.17,62.76C256.77,63.88 256.65,65.26 255.13,65.41C243.48,45.3 245.65,25 259.91,6.99C268.39,-3.73 270.9,-1.64 276.43,10.15C284.03,26.38 285.48,43.42 274.98,58.62C272.48,62.24 267.62,66.06 265.35,69.9C260.46,78.19 257.86,91.59 252.72,101.17C250.41,105.49 247.17,109.3 244.65,113.47C263.63,111.43 273.55,126.56 279.12,142.31C289.95,140.39 300.41,137.87 305.88,149.99C308.24,155.23 308,176.34 307.42,183C306.55,193.06 301,201.56 290.1,202.33C285.12,202.68 280.79,200.22 276.53,200.22C273.33,200.22 269.46,202.05 266.06,202.28C252.12,203.22 245.49,195.2 244.66,181.91C244.35,177.01 245.13,156.07 246.18,152.11C248.95,141.65 261.37,138.72 270.78,141.69C265.37,122.91 244.12,116.95 231.86,133.62C219.57,150.34 217.81,174.11 222.35,193.76C230.24,227.91 257.56,251.73 267.66,284.84L278.64,251.43C301.81,205.67 336.46,177.46 348.89,125.2C353.45,106.04 356.92,86.58 350.23,67.52C349.18,67.21 348.15,71.96 348.15,72.21L348.15,104.08C344.39,103.15 339.79,96.26 337.88,92.92C330.1,79.32 330.87,60.04 337.88,46.27C340.2,41.71 344.96,38.04 346.08,33.03L348.24,33.7C357.48,45.89 366.67,54.77 368.06,71.13C369.45,87.49 363.81,90.07 360.95,102.76C358.69,112.78 358.42,124.82 356.19,135.62C353.8,147.22 349.89,158.43 347.12,169.91C357.86,158.82 373.1,153.36 386.56,146.17C391.77,143.39 397.95,140.73 403.22,137.7C418.28,129.04 425.83,109.38 424.47,92.6L410.35,126.03C408.62,126.42 408.21,124.59 407.68,123.49C397.18,101.74 410.3,72.7 432.18,64.3C438.97,74.16 441.6,89.49 439.92,101.23C437.95,114.91 424.58,125.85 417.17,136.47C418.92,137.76 435.57,131.68 439.66,131.27C457.47,129.46 470.97,137.35 481.96,150.63C482.71,151.53 485.79,155.38 485.13,156.32C480.32,158.54 476.04,161.58 471.21,163.84C455.06,171.42 441.85,171.39 427.61,158.96C426.39,157.89 419.84,151.43 421.35,150.07L454.8,150.59C450.86,146.66 444.72,147.04 439.9,145.81C439.04,145.59 439.14,144 438.39,143.82C436.08,143.27 422.5,143.36 419.71,143.71C419,143.8 408.47,147.52 406.46,148.25C402.28,149.76 375.86,162.36 374.76,164.65C373.31,167.65 380.67,169.48 383.01,171.12C390.38,176.29 395.87,187.02 396.29,195.98C400.62,196.98 404.24,194.33 408.27,193.93C420.47,192.72 429.7,199.88 430.8,212.18C431.83,223.77 432.5,249.1 425.53,258.19C415.8,270.87 404.6,263.3 392.56,263.9C383.52,264.35 379.87,268.13 369.86,263.67C363.65,260.9 359.33,252.28 358.61,245.66C357.79,238.13 357.66,216.52 358.86,209.34C360.92,197.11 377.17,190.7 387.88,196.02C387.33,181.93 373.36,172.56 359.94,176.97C347.5,181.06 317.98,219.08 310.71,231.22C309.54,233.17 300.33,250.59 301.11,251.39C316.17,246.29 327.65,261.22 330.48,274.27C332.41,275.92 345.32,270.2 350.94,276.82C357.3,284.31 356.92,309.69 352.92,318.33C347.27,330.55 338.04,325.33 327.71,325.53C321.76,325.64 315.27,328.78 309.79,324.2C307.84,322.57 303.66,316.11 303.26,313.5C302.53,308.73 302.56,289.19 303.64,284.76C304.99,279.25 309.73,274.19 315.5,273.53C318.49,273.19 321.38,275.32 324.1,273.88C320.49,260.09 302.57,253.14 294.96,267.72C291.45,274.45 288.41,293.91 287.53,302.09C284.86,326.65 288.05,351.18 288.57,375.74C290.71,378.15 298.48,365.46 299.09,364.84C330.6,332.5 380.09,328.04 415.45,302.44C431.02,291.17 467.37,254.09 467.37,234.16L467.37,212.74C465.37,213.18 465.29,215.36 464.75,216.92C463.36,220.97 459.13,245.26 457.94,246.18C447.71,238.88 447,219.6 449.89,208.35C451.55,201.92 458.66,191.06 463.11,186.03C464.01,185.01 470.2,180.16 470.98,180.35C483.59,196.24 487.04,216.99 478.34,235.73C475.07,242.76 467.41,249.22 467.37,257.67C469.04,257.88 467.98,256.08 469.69,255.25C478.41,250.99 496.79,246.53 506.28,247.52C518.05,248.75 529.53,257.22 536.9,266.02C537.75,267.03 541.26,271.27 540.54,272.28C534.74,274.21 530.69,279.15 525.12,281.44C505.62,289.44 490.52,282.2 477.81,267.09C487.95,264.65 498.32,268.4 508.67,267.09C510.11,266.91 511.79,266.46 510.22,265.01C488.99,258.93 473.25,256.82 457.94,274.92C440.87,295.1 431.61,308.7 409.03,324.51C405.86,326.73 401.72,327.79 399.38,330.81C407.56,330.47 415.98,333.4 423.96,333.94C448.59,335.61 474.24,327.11 492.43,310.98C479.36,313.4 467.11,319.71 454.13,322.34C452.7,322.63 452.25,322.47 452.72,320.92C453.45,318.51 457.67,313.12 459.49,310.96C478.32,288.57 497.64,288.93 523.73,299.57C525.45,301.95 516.23,314.34 514.37,316.69C506.36,326.8 496.86,334.38 483.44,335.94C478.33,336.53 473,335.62 467.89,336.07C458.46,336.9 449.61,341.16 440.17,341.29C450.96,354.95 469.27,357.28 478.69,372.27C481.53,376.79 486.18,389 486.18,394.04L486.18,409.71C483.65,412.16 476.3,409.51 472.82,408.44C448.88,401.07 439.12,383.62 440.19,359.04C449.16,367.43 455.87,377.47 465.8,385.16C466.59,385.32 466.47,384.15 466.3,383.62C462.79,372.42 448.63,356.41 438.07,351.23C414.78,339.79 390.26,339.5 366.43,348.57C365.25,349.02 350.94,354.53 352.35,355.91C374.8,358.73 386.76,378.46 393.07,398.27C405.77,393.38 425.34,395.73 427.54,411.91C428.88,421.75 429.19,447.26 426.29,456.46C423.39,465.66 415.21,470.61 405.52,470.24C400.39,470.04 395.45,467.54 390.51,467.64C385.57,467.74 380.33,470.53 375.7,470.77C367.34,471.21 358.06,466.53 354.74,458.52C351.25,450.09 351.1,417.93 353.92,409.21C358.01,396.54 371.11,394.89 382.66,397.7C382.91,386.78 370.05,373.92 360.71,370.02C357.75,368.79 355.56,369.08 353.13,368.38C352.25,368.13 352.38,366.57 351.62,366.39C349.95,365.99 339.11,366 337.4,366.39C336.63,366.57 336.59,368.09 335.86,368.37C299.4,382.17 291.03,423.53 292.76,458.82C294.52,494.7 300.98,531.66 303.2,567.51C303.4,570.8 303.1,574.14 303.22,577.43L236.29,577.43L246.74,451.5C253.05,419.18 231.35,343.06 189.77,346.51C176.77,347.59 161.14,361.01 161.02,374.7C180,368.77 190.95,376.64 192.42,396.08C192.98,403.45 193.05,416.01 192.42,423.33C191.41,434.96 184.28,445.72 171.85,446.72C165.38,447.24 159.53,443.67 154.22,443.67C150.1,443.67 144.86,446.66 140.58,446.84C128.65,447.35 119.28,438.65 117.35,427.23C116,419.22 116.32,390.87 119.47,383.86C124.9,371.75 140.82,370.42 151.6,375.76C155.04,358.17 166.04,340.83 184.02,335.53C164.69,325.67 141.76,325.98 121.28,332.38C99.19,339.28 88.85,355.61 83.66,377.33C84.67,378.97 86,377.08 86.77,376.26C91.79,370.9 96.69,358.35 102.01,351.79C103,350.57 103.7,349.26 105.6,349.64C112.45,376.12 96.12,399.3 70.65,406C61.66,385.49 68.09,359.1 87.2,346.4L94.1,338.15C73.94,340.15 47.3,341.1 31.87,325.63C29.86,323.61 15.92,304.75 16.73,303.68C29.69,296.61 42.44,292.34 57.78,295.55C66.9,297.46 76.88,306.3 82.58,313.61C83.79,315.16 89.28,323.21 87.83,324.55C84.04,325.8 84.05,323 82.21,322.31C74.94,319.57 63.89,316.31 56.3,314.8C54.55,314.45 51.71,313.34 50.2,314.63L63.57,324.48C71.22,327.19 80.19,331.72 88.41,331.91C105.63,332.31 121.98,318.34 139.06,316.73L110.6,301.58C97.19,294.48 87.68,278.58 76.86,270.23C63.11,259.62 45.41,261.51 30.34,268.15L41.36,269.23C45.29,268.86 60.98,266.23 62.73,269.72L53.06,279.99C39.01,289.85 20.93,288.44 6.57,279.92C4.66,278.79 3.29,275.62 0.13,275.33C-0.91,273.59 5.68,266.14 7.33,264.49C25.29,246.47 42.94,245.75 66.11,255.67C67.26,256.16 68.71,259.97 72.14,258.73C71.6,251.45 66.21,246.12 63.24,239.95C57.06,227.13 54.65,218.72 58.02,204.39C58.84,200.91 65.83,182.03 69.36,182.56C86.68,195.32 96.69,216.15 89.07,237.51C88.47,239.19 83.95,248.95 81.57,247.24C78.84,238.24 78.46,227.48 75,218.8C74.4,217.29 74.06,215.3 72.15,214.86L72.15,234.19C72.15,251.06 98.72,279.42 112.59,287.82C148.31,309.46 187.79,310.95 222.85,334.37C234.05,341.85 243.94,352.86 250.96,364.28L253.03,355.4C255.49,317.42 247.71,287.91 230.23,254.91C222.24,239.84 215.13,224.94 207.45,209.76C203.01,200.99 189.74,181.63 180.89,177.74C168.88,172.46 155.35,187.33 153.72,198.68C153.35,201.27 153.99,199.79 154.78,199.75C162.44,199.38 164.57,196.49 173.08,200.22C180.94,203.67 183.44,211.46 184.08,219.53C184.82,229 185.13,254.15 180.34,261.84C177.87,265.82 171.32,269.51 166.7,270.15C160.85,270.96 156.18,269.16 151.15,269.16C135.36,269.16 116.15,275.69 112.16,253.78C110.27,243.41 109.61,219.06 113.26,209.44C115.76,202.84 124.35,198.09 131.24,198.08C134.78,198.08 143.16,201.47 145.43,199.8C147.93,186.3 153.89,173.74 167.72,168.98L168.4,166.32C152.3,155.52 134.24,150.76 115.81,145.84C114.94,145.61 115.06,144.03 114.3,143.85C112.66,143.46 100.65,143.45 99.02,143.85C98.25,144.03 98.41,145.63 97.55,145.87C94.9,146.6 91.26,146.54 87.85,147.49C85.48,148.15 80.88,149.09 79.48,151.14L111.37,151.14L112.43,153.23C109.52,155.87 107.09,159.09 103.88,161.41C93.49,168.91 81.19,172.58 68.37,168.03C67.08,167.57 59.67,163.78 57.87,162.82C47.44,157.23 46.97,156.91 54.88,147.94C63.63,138.03 77.97,130.71 91.48,131.29C100.04,131.66 108.75,136.18 117.12,137.54C114.85,132.05 109.19,128.96 105.62,124.49C91.41,106.68 88.96,83.85 101.94,64.53C119.98,73.16 132.37,92.31 129.4,112.72C129.13,114.6 125.49,128.38 122.36,126.05L109.81,93.67C108.92,110.42 115.38,130.7 131.36,138.47C140.48,142.9 151.96,145.43 161.73,149.91C177.91,157.33 192.34,166.75 204.94,179.35L204.94,142.26C204.94,132.61 190.27,110.9 185.27,102.36C177.21,88.58 172.17,73.78 157.36,65.47C156.64,65.25 156.65,66.32 156.86,67.01C157.26,68.33 163.32,78.4 164.53,80.25C165.54,81.79 176.57,95.05 175.66,95.76C145.59,93.69 133.69,68.97 134.88,41.43C155.57,41.87 171.77,49.38 180.03,68.94C184.06,78.47 185.37,83.37 190.5,92.96C193.99,99.48 196.28,106.78 202.32,111.45C204.92,97.01 196.28,82.42 203.9,68.62C211.38,71.09 212.87,84.12 213.28,91.1C214.21,106.75 207.31,122.44 214.35,137.58C216.75,138.17 216.06,137.13 216.73,136.27C219.94,132.14 222.73,125.73 225.85,121.41C234.76,109.06 244.89,104.06 243.59,86.93C242.47,72.09 234.33,64.57 225.3,54.01C222.58,53.8 224.22,54.43 224.5,55.85C226.52,66.19 236.08,75.82 238.37,86.39C211.24,81.95 200.29,52.43 206.47,27.84C207.32,26.38 210.77,28.07 212.23,28.42C223.22,31.1 239.28,41.54 243.82,52.22C248.37,62.91 248.32,76.03 248.84,87.43C250.75,87.86 250.89,86.85 251.79,85.69C255.48,80.95 266.61,53.99 266.61,48.25L266.61,30.92ZM267.39,164.39C272.52,159.53 266.72,149.73 260.37,152.63C250.32,157.22 260.12,171.27 267.39,164.39ZM288.21,172.29C271.04,173.19 281.63,200.56 293.22,190.72C300.98,184.12 297.24,171.82 288.21,172.29ZM376.11,206.64C368.45,208.87 368.13,224.25 378.92,223.17C389.9,222.08 386.45,203.63 376.11,206.64ZM128.29,212.95C120.1,215.41 123.12,230.44 134.13,227.14C142.11,224.74 139.23,209.66 128.29,212.95ZM404.33,229.67C394.54,231.9 392.54,252.74 407.22,253.55C425.51,254.55 422.56,225.52 404.33,229.67ZM154.01,257.33C166.09,268.35 181.84,244.18 167.67,236.89C153.5,229.6 143.01,247.3 154.01,257.33ZM316.53,283.94C309.23,285.35 310.88,295.78 318.22,295.01C325.13,294.28 324.2,282.46 316.53,283.94ZM336.37,301.76C329.17,303.39 330.08,315.11 336.36,316.99C349.58,320.95 352.18,298.18 336.37,301.76ZM135.6,386.36C128.64,388.52 128.88,404.16 139.11,402.46C149.62,400.72 146.39,383.01 135.6,386.36ZM176.37,411.58C168.38,404.29 156.8,412.57 156.81,422.23C156.81,429.01 165.68,437.77 172.26,435C172.54,434.88 172.65,433.63 173.29,433.24C174.84,432.29 176.32,432.13 177.78,430.62C182.66,425.55 181.25,416.03 176.38,411.59L176.37,411.58ZM368.29,411.52C365.17,415.07 365.39,424.02 370.87,425.67C383.57,429.48 384.77,409.89 374.67,409.48C373.46,409.43 368.95,410.79 368.3,411.53L368.29,411.52ZM409.6,433.49C400.32,429.64 390.33,441.18 394.1,450.52C400.88,467.32 422.04,455.43 415.6,440.51C415.05,439.25 410.16,433.71 409.6,433.48L409.6,433.49Z" style="fill-rule:nonzero;"/>
		<path d="M310.16,85.93C303.05,93.32 291.02,98.08 280.72,97.86C279.09,97.83 265,95.71 266.62,93.62C276.55,88.35 288.82,84.23 295.89,75.32C291.86,74.15 285.67,75.98 283.08,79.27L264.51,86.8C272.64,61.08 298.96,50.36 323.01,61.85C324.03,65.19 313.03,82.94 310.16,85.92L310.16,85.93Z" style="fill-rule:nonzero;"/>
		<path d="M487.23,243.03L511.27,218.46C511.97,215.38 505.71,219.22 505.07,219.58C497.93,223.49 490.22,230.41 484.11,235.71C485.03,223.12 490.79,209.38 501.96,202.88C511.9,197.1 523.03,195.32 534.3,197.05C533.38,206.08 532.02,214.17 527.51,222.14C523.39,229.43 511.26,243.02 502.4,243.02L487.24,243.02L487.23,243.03Z" style="fill-rule:nonzero;"/>
		<path d="M23.51,199.14C40.97,201.88 54.02,219.08 55.69,235.96C55.82,237.25 57.71,238.03 54.89,237.8C47.05,230.3 38.75,222.67 28.21,219.01C26.72,220.35 50.01,241.76 52.25,243.57C52.69,245.94 51.21,245 49.67,245.12C21.65,247.3 6.88,224.39 5.21,199.15C10.87,199.77 18.09,198.3 23.51,199.15L23.51,199.14Z" style="fill-rule:nonzero;"/>
		<path d="M194.47,135.4C181.52,136.87 168.81,138.92 157.14,131.43C148.74,126.04 145.43,115.26 141.14,106.69C141.53,104.71 158.62,103.29 161.35,103.41C178.42,104.15 191.13,119.7 194.47,135.4Z" style="fill-rule:nonzero;"/>
		<path d="M219.55,325.57C218.1,325.38 217.75,324.15 217.52,322.9C215.69,312.85 215.32,302.43 210.13,293.18L208.08,293.67L211.19,320.33C190.21,310.79 191.44,283.31 201.88,266.07C218.78,273.8 228.75,291.39 225.58,310.16C224.66,315.64 219.94,319.87 219.54,325.56L219.55,325.57Z" style="fill-rule:nonzero;"/>
		<path d="M397.31,86.3L397.31,104.59C397.31,107.29 392.66,115.42 390.86,118C384.47,127.15 374.88,132.02 363.86,133.33C362.25,110.28 372.63,89.31 397.31,86.31L397.31,86.3Z" style="fill-rule:nonzero;"/>
		<path d="M475.44,99.18C475.69,99.29 475.74,100.56 476.55,100.83C478.46,101.49 481.01,101.64 483.06,101.98C484.57,103.75 476.11,114.48 474.32,116.23C469.02,121.45 460.87,126.2 453.26,126.08C451.48,126.05 440.63,124.01 440.09,123.27C436.69,118.63 445.87,108.36 449.67,105.7C454.83,102.08 469.75,96.68 475.45,99.18L475.44,99.18Z" style="fill-rule:nonzero;"/>
		<path d="M61.36,344.74C61.66,344.84 61.81,346.09 62.49,346.39C64.6,347.34 67.37,346.9 68.98,349.07C64.85,356.82 58.65,362.41 50.95,366.35C50.36,366.65 50.25,367.97 49.92,368.11C46.89,369.44 36.48,368.94 32.86,368.49C31.03,368.26 31.48,366.71 30.53,366.42C27.77,365.56 24.78,364.79 21.94,364.22C21.52,362.64 22.36,362.49 22.97,361.6C31.23,349.68 46.74,339.98 61.35,344.73L61.36,344.74Z" style="fill-rule:nonzero;"/>
		<path d="M500.43,344.79C502.21,345.78 507.51,349.71 509.2,351.16C511.93,353.51 514.61,356.42 516.47,359.54C501.2,370.03 478.2,366.97 470.59,348.9C476.8,339.59 491.22,339.67 500.43,344.78L500.43,344.79Z" style="fill-rule:nonzero;"/>
		<path d="M96.16,123.88C95.66,124.57 81.65,126.95 79.86,126.93C67.14,126.82 56.42,114.81 51.22,104.07C69.09,95.81 91.38,104.59 96.16,123.88Z" style="fill-rule:nonzero;"/>
		<path d="M286.48,51.81C287.07,31.16 299,17.23 319.95,15.72C322.66,17.52 317.43,32.79 315.96,35.82C310.86,46.33 297.72,51.7 286.49,51.81L286.48,51.81Z" style="fill-rule:nonzero;"/>
		<path d="M375.35,62.79C377.1,52.38 388.84,40.65 399.39,39.28C401.49,49.94 401.48,60.72 395.04,69.94C392.95,72.94 380.9,82.73 377.78,83.02C376.39,83.15 376.19,82.46 375.35,81.6C376.02,75.84 374.43,68.26 375.35,62.79Z" style="fill-rule:nonzero;"/>
		<path d="M337.71,146.9C335.82,148.86 323.62,137.83 322.06,135.9C313.94,125.89 314.17,113.96 316.81,101.96C319.48,99.43 332.13,110.86 333.99,113.52C340.82,123.33 338.92,135.69 337.71,146.9Z" style="fill-rule:nonzero;"/>
		<path d="M419.27,363.19C420.94,378.6 407.92,391.71 393.13,392.45C390.58,377.57 403.68,361.01 419.27,363.19Z" style="fill-rule:nonzero;"/>
		<path d="M141.53,346.08C148.34,351.72 153.25,359.24 150.54,368.41C148.81,368.86 150.09,366.57 148.84,366.3C146.93,365.88 144.33,366.59 141.91,366.08C130.68,363.74 122.8,350.52 126.48,339.61C130.76,340.1 135.83,341.09 139.46,343.5C140.5,344.19 140.82,345.48 141.54,346.07L141.53,346.08Z" style="fill-rule:nonzero;"/>
		<path d="M124.12,166.05C126.49,167.07 130.33,168.61 133.13,170.06C141.68,174.48 145.02,184.73 144.27,193.93C129.82,194.04 116.98,180.15 118.13,165.71C120.11,165.82 122.2,165.23 124.12,166.05Z" style="fill-rule:nonzero;"/>
		<path d="M422.41,162.57C423.8,177.39 412.08,189.33 397.31,187.65C396.26,174.43 408.87,160.61 422.41,162.57Z" style="fill-rule:nonzero;"/>
		<path d="M301.11,113.47C300.47,126.45 293.27,137.17 279.15,136.46C277.66,123.55 287.83,112.12 301.11,113.47Z" style="fill-rule:nonzero;"/>
		<path d="M349.22,251.39C349.2,261.89 342.59,270.6 331.44,269.15C331.01,259.28 338.33,248.98 349.22,251.39Z" style="fill-rule:nonzero;"/>
	</g>
</svg>
